<?xml version="1.0" encoding="UTF-8" standalone="no"?>
<!-- Created with Inkscape (http://www.inkscape.org/) -->
<svg xmlns:rdf="http://www.w3.org/1999/02/22-rdf-syntax-ns#" xmlns="http://www.w3.org/2000/svg" height="14" width="16" version="1.1" xmlns:cc="http://creativecommons.org/ns#" xmlns:dc="http://purl.org/dc/elements/1.1/" viewBox="0 0 4.2333333 3.7041667">
 <metadata>
  <rdf:RDF>
   <cc:Work rdf:about="">
    <dc:format>image/svg+xml</dc:format>
    <dc:type rdf:resource="http://purl.org/dc/dcmitype/StillImage"/>
    <dc:title/>
   </cc:Work>
  </rdf:RDF>
 </metadata>
 <g transform="translate(0 -293.3)">
  <path d="m0.34886 296.38c-0.067376-0.0699-0.070874-0.1226-0.070874-1.0668 0-0.66469 0.012197-0.9933 0.036941-0.9933 0.02032 0 0.29928 0.18547 0.61989 0.41217l0.58295 0.41216-0.081611 0.0937c-0.40426 0.46403-0.66393 0.78452-0.64854 0.80053 0.010186 0.0106 0.21755-0.15658 0.46082-0.37143 0.24326-0.21481 0.45219-0.39063 0.46429-0.39063 0.012118 0 0.080671 0.0414 0.15238 0.092 0.16775 0.11832 0.33157 0.1175 0.5292-0.003l0.1557-0.0948 0.14864 0.12679c0.081748 0.0697 0.28295 0.24466 0.44711 0.3888 0.16416 0.14415 0.30642 0.25382 0.31613 0.24374 0.019182-0.0199 0.014658-0.0257-0.4126-0.51954-0.15983-0.18476-0.29061-0.34539-0.29061-0.35697 0-0.0254 1.0674-0.78688 1.1481-0.81902 0.051297-0.0204 0.056838 0.0746 0.056838 0.97459 0 0.94816-0.00349 1.0008-0.070879 1.0708-0.068908 0.0715-0.11813 0.0736-1.7719 0.0736s-1.703-0.003-1.7719-0.0736zm0.83391-1.6764c-0.4477-0.25332-0.82579-0.48038-0.84019-0.50459-0.01442-0.0241-0.013944-0.0567 0.001058-0.0723 0.014949-0.0156 0.82363-0.0241 1.797-0.0188 1.5455 0.008 1.7698 0.0167 1.7698 0.0647 0 0.034-0.31388 0.23477-0.81509 0.52163-0.6519 0.37298-0.84347 0.46673-0.95684 0.4681-0.11614 0.003-0.28883-0.0815-0.95575-0.45889z" stroke-width=".26458" fill="#c8cdd1"/>
 </g>
</svg>
