<?xml version="1.0" encoding="UTF-8" standalone="no"?>
<!-- Created with Inkscape (http://www.inkscape.org/) -->
<svg xmlns:rdf="http://www.w3.org/1999/02/22-rdf-syntax-ns#" xmlns="http://www.w3.org/2000/svg" height="23" width="23" version="1.1" xmlns:cc="http://creativecommons.org/ns#" xmlns:dc="http://purl.org/dc/elements/1.1/" viewBox="0 0 6.0854166 6.0854165">
 <metadata>
  <rdf:RDF>
   <cc:Work rdf:about="">
    <dc:format>image/svg+xml</dc:format>
    <dc:type rdf:resource="http://purl.org/dc/dcmitype/StillImage"/>
    <dc:title/>
   </cc:Work>
  </rdf:RDF>
 </metadata>
 <path d="m2.6143 5.9301c-0.964-0.1511-1.7623-0.7312-2.1976-1.5968-0.21397-0.4254-0.29345-0.7807-0.29345-1.3116 0-0.41743 0.023971-0.58465 0.13127-0.91593 0.14517-0.4483 0.36897-0.8097 0.71672-1.1574 0.34776-0.34774 0.70916-0.57155 1.1574-0.71672 0.3313-0.10732 0.4984-0.13126 0.9159-0.13126 0.41744 0 0.58463 0.024077 0.91592 0.13126 0.4482 0.14518 0.80958 0.36899 1.1573 0.71673 0.35018 0.35018 0.57028 0.7053 0.71605 1.1553 0.10802 0.33345 0.13194 0.49993 0.13194 0.918 0 0.41804-0.02392 0.58454-0.13194 0.91797-0.1457 0.4499-0.3658 0.805-0.716 1.1552-0.4181 0.4182-0.8781 0.6709-1.4605 0.8024-0.1913 0.0432-0.8454 0.0638-1.0429 0.0328zm1.0383-0.5085c0.88536-0.24257 1.551-0.91146 1.7951-1.8038 0.0442-0.16158 0.05166-0.24768 0.05166-0.59619 0-0.34854-0.0075-0.43463-0.05166-0.59621-0.2442-0.8926-0.9111-1.5619-1.798-1.8042-0.2538-0.06938-0.7871-0.0861-1.0499-0.03297-0.5318 0.10753-0.8986 0.30588-1.2907 0.69797-0.38765 0.3876-0.58859 0.7562-0.6951 1.2748-0.048117 0.23426-0.048117 0.68712 0 0.92138 0.20467 0.99645 0.94859 1.7465 1.9533 1.9693 0.23843 0.05289 0.84372 0.036116 1.0853-0.030057zm-0.0378-0.7868-0.5819-0.293-0.6332 0.2104-0.6332 0.2105-0.0744-0.2246c-0.0409-0.1235-0.0787-0.2366-0.0841-0.2512-0.006-0.0164 0.1289-0.0729 0.3526-0.1474 0.1993-0.0665 0.3623-0.1251 0.3623-0.1304 0-0.00529-0.14926-0.084111-0.33169-0.17526-0.1824-0.0911-0.3364-0.17-0.3421-0.1753-0.015-0.0141 0.2145-0.4739 0.2366-0.4739 0.010213 0 0.27934 0.13047 0.59806 0.28993l0.5795 0.2899 0.6237-0.2082c0.41516-0.13859 0.62893-0.19971 0.63937-0.1828 0.026326 0.042598 0.16777 0.46432 0.15843 0.47233-0.00482 0.00423-0.16063 0.057362-0.34626 0.11832-0.18563 0.06096-0.34682 0.11935-0.3582 0.12978-0.011377 0.010319 0.13265 0.092154 0.32006 0.18164 0.18741 0.089482 0.34074 0.17378 0.34074 0.18732 0 0.032914-0.21662 0.46789-0.2322 0.46628-0.00672 0-0.27407-0.13311-0.59412-0.29427zm-1.676-1.8805c-0.0914-0.043-0.1293-0.0764-0.1987-0.1749-0.047871-0.067998-0.057338-0.10869-0.057338-0.24638 0-0.14356 0.00863-0.17738 0.066612-0.26104 0.1234-0.17809 0.37789-0.2417 0.58697-0.14674 0.32218 0.14634 0.3247 0.65902 0.004 0.81428-0.11846 0.057362-0.29689 0.063897-0.40153 0.014817zm1.8079-0.0141c-0.1341-0.068-0.2185-0.1983-0.2317-0.3574-0.018-0.2166 0.0669-0.38 0.2376-0.4576 0.2091-0.0949 0.4636-0.0313 0.587 0.1468 0.0581 0.0838 0.0665 0.1171 0.0662 0.261-0.0005 0.1878-0.0518 0.291-0.1932 0.3879-0.1157 0.0792-0.3303 0.0882-0.4659 0.0193z" stroke-width=".26458" fill="#474e54"/>
</svg>
