<?xml version="1.0" encoding="UTF-8" standalone="no"?>
<!-- Created with Inkscape (http://www.inkscape.org/) -->
<svg xmlns:rdf="http://www.w3.org/1999/02/22-rdf-syntax-ns#" xmlns="http://www.w3.org/2000/svg" height="18" width="22" version="1.1" xmlns:cc="http://creativecommons.org/ns#" xmlns:dc="http://purl.org/dc/elements/1.1/" viewBox="0 0 5.8208333 4.7625">
 <metadata>
  <rdf:RDF>
   <cc:Work rdf:about="">
    <dc:format>image/svg+xml</dc:format>
    <dc:type rdf:resource="http://purl.org/dc/dcmitype/StillImage"/>
    <dc:title/>
   </cc:Work>
  </rdf:RDF>
 </metadata>
 <g transform="translate(0 -292.24)">
  <path d="m1.3819 296.73c-0.34208-0.0602-0.70913-0.19082-1.0082-0.35872l-0.13375-0.0751 0.31893-0.0127c0.45528-0.0183 0.76841-0.11319 1.1136-0.33779l0.15186-0.0988-0.13374-0.0257c-0.27659-0.0533-0.43658-0.13911-0.62251-0.33406-0.091742-0.0962-0.24169-0.33419-0.24169-0.38362 0-0.006 0.090279-0.0111 0.20062-0.0111 0.11034-0.00021 0.21451-0.009 0.23148-0.0204 0.025876-0.0167 0.02458-0.0201-0.00812-0.0204-0.078436 0-0.33475-0.14417-0.45991-0.25754-0.17715-0.1605-0.31407-0.43019-0.32976-0.64958-0.010054-0.14071-0.00844-0.1483 0.028332-0.13248 0.097584 0.042 0.2525 0.0898 0.33394 0.10308l0.089167 0.0146-0.13032-0.13071c-0.27571-0.27651-0.38277-0.64775-0.29462-1.0216 0.025532-0.10827 0.075221-0.2362 0.10463-0.26932 0.00392-0.005 0.11211 0.0929 0.24045 0.21629 0.12834 0.12338 0.3187 0.28279 0.42302 0.35423 0.41139 0.28178 0.93388 0.47164 1.4475 0.52599l0.11712 0.0124-0.011589-0.13893c-0.041815-0.50183 0.25089-0.95713 0.72624-1.1297 0.1074-0.039 0.17391-0.0483 0.34319-0.0481 0.2906 0 0.49328 0.0691 0.69156 0.23479 0.05542 0.0463 0.10973 0.0736 0.14629 0.0736 0.06825 0 0.37816-0.10618 0.52129-0.17862 0.05488-0.0278 0.1041-0.0462 0.10937-0.0409 0.02705 0.0271-0.13554 0.28263-0.26204 0.41193-0.07787 0.0796-0.13898 0.1473-0.1358 0.15047 0.0088 0.009 0.321-0.0687 0.42337-0.10522 0.04986-0.0177 0.09514-0.0278 0.10061-0.0225 0.02368 0.0238-0.2923 0.37327-0.4319 0.47781-0.0535 0.0401-0.05622 0.0518-0.07757 0.33549-0.02627 0.34917-0.06124 0.53253-0.15698 0.8233-0.29479 0.89519-0.97956 1.6191-1.8191 1.9231-0.34831 0.12613-0.55071 0.15928-1.0185 0.16677-0.29541 0.005-0.48092-0.003-0.58642-0.0204z" stroke-width=".26458" fill="#474e54"/>
 </g>
</svg>
