<?xml version="1.0" encoding="UTF-8" standalone="no"?>
<!-- Created with Inkscape (http://www.inkscape.org/) -->
<svg xmlns:rdf="http://www.w3.org/1999/02/22-rdf-syntax-ns#" xmlns="http://www.w3.org/2000/svg" height="18" width="18" version="1.1" xmlns:cc="http://creativecommons.org/ns#" xmlns:dc="http://purl.org/dc/elements/1.1/" viewBox="0 0 4.7624999 4.7624999">
 <metadata>
  <rdf:RDF>
   <cc:Work rdf:about="">
    <dc:format>image/svg+xml</dc:format>
    <dc:type rdf:resource="http://purl.org/dc/dcmitype/StillImage"/>
    <dc:title/>
   </cc:Work>
  </rdf:RDF>
 </metadata>
 <g transform="translate(0 -292.24)">
  <path d="m2.175 296.81c-0.20094-0.0187-0.49199-0.0959-0.67358-0.17863-0.26672-0.12155-0.47767-0.26799-0.67817-0.47082-0.5557-0.56212-0.77031-1.3677-0.56281-2.1126 0.28552-1.025 1.2688-1.7123 2.3132-1.617 0.65616 0.0599 1.2693 0.42706 1.6357 0.9795 0.27648 0.41682 0.40576 0.91588 0.36218 1.3981-0.079076 0.87496-0.67981 1.626-1.5213 1.9019-0.28273 0.0927-0.5824 0.12679-0.8752 0.0996zm0.25987-0.99232c0.15945-0.082 0.2258-0.27458 0.14748-0.4281-0.029562-0.058-0.096512-0.12413-0.15417-0.15242-0.045294-0.0222-0.062164-0.0253-0.13882-0.0253-0.08041-0.00004-0.09212 0.002-0.14931 0.0305-0.11095 0.0546-0.16673 0.15198-0.16627 0.29021 0.0005292 0.13849 0.071549 0.24009 0.21002 0.30015 0.058915 0.0256 0.18705 0.0179 0.25106-0.015zm0.092964-0.8379c0-0.16917 0.074718-0.33575 0.22025-0.49102 0.17198-0.1835 0.22567-0.27556 0.24651-0.4227 0.010901-0.0769-0.00283-0.23002-0.027175-0.30317-0.054983-0.16522-0.20619-0.29562-0.40292-0.34747-0.078256-0.0206-0.32937-0.0288-0.43289-0.0142-0.15531 0.022-0.37449 0.0967-0.38816 0.13233-0.0031 0.008 0.12499 0.36082 0.13749 0.37861 0.0007938 0.00093 0.025876-0.0102 0.056002-0.0249 0.074814-0.0363 0.16194-0.0548 0.25904-0.0548 0.16263 0 0.24656 0.053 0.26855 0.16954 0.018203 0.0965-0.035155 0.20474-0.17887 0.36271-0.090842 0.0999-0.18241 0.28349-0.2108 0.42275-0.00791 0.0388-0.01442 0.10999-0.01442 0.15809v0.0874h0.4673z" stroke-width=".26458" fill="#474e54"/>
 </g>
</svg>
