<?xml version="1.0" encoding="UTF-8" standalone="no"?>
<!-- Created with Inkscape (http://www.inkscape.org/) -->
<svg xmlns:rdf="http://www.w3.org/1999/02/22-rdf-syntax-ns#" xmlns="http://www.w3.org/2000/svg" height="23" width="23" version="1.1" xmlns:cc="http://creativecommons.org/ns#" xmlns:dc="http://purl.org/dc/elements/1.1/" viewBox="0 0 6.0854166 6.0854165">
 <metadata>
  <rdf:RDF>
   <cc:Work rdf:about="">
    <dc:format>image/svg+xml</dc:format>
    <dc:type rdf:resource="http://purl.org/dc/dcmitype/StillImage"/>
    <dc:title/>
   </cc:Work>
  </rdf:RDF>
 </metadata>
 <path d="m1.3694 5.258c-0.2093-0.0778-0.2085-0.0768-0.39436-0.5079-0.19283-0.4472-0.30689-0.8426-0.34451-1.1941-0.02408-0.2258-0.01693-0.2724 0.05768-0.3671 0.1084-0.1379 0.58899-0.3307 0.77879-0.3125 0.1326 0.0127 0.1463 0.0293 0.2756 0.3396 0.0748 0.1793 0.1518 0.3419 0.1709 0.3613 0.0417 0.042 0.0413 0.0425 0.5987-0.7079 0.5039-0.6783 1.2948-1.5015 1.678-1.7467 0.1417-0.0906 0.3539-0.18627 0.4717-0.21262 0.22151-0.049583 0.81156-0.039926 0.86561 0.014023 0.066966 0.06694-0.075433 0.26495-0.79981 1.1121-0.992 1.1601-1.7717 2.139-2.1248 2.6676-0.1924 0.2881-0.33 0.4509-0.4207 0.4978-0.193 0.0997-0.6169 0.129-0.8128 0.0562z" stroke-width=".26458" fill="#474e54"/>
</svg>
