<?xml version="1.0" encoding="UTF-8" standalone="no"?>
<!-- Created with Inkscape (http://www.inkscape.org/) -->
<svg xmlns:rdf="http://www.w3.org/1999/02/22-rdf-syntax-ns#" xmlns="http://www.w3.org/2000/svg" height="23" width="23" version="1.1" xmlns:cc="http://creativecommons.org/ns#" xmlns:dc="http://purl.org/dc/elements/1.1/" viewBox="0 0 6.0854166 6.0854165">
 <metadata>
  <rdf:RDF>
   <cc:Work rdf:about="">
    <dc:format>image/svg+xml</dc:format>
    <dc:type rdf:resource="http://purl.org/dc/dcmitype/StillImage"/>
    <dc:title/>
   </cc:Work>
  </rdf:RDF>
 </metadata>
 <path d="m1.5393 5.2928c-0.05937-0.024342-0.094549-0.080354-0.094549-0.15002 0-0.056727 0.00632-0.072469 0.044156-0.11033l0.044156-0.044159 1.6183-0.00344 1.6183-0.00344 0.04613 0.031009c0.06558 0.044053 0.09075 0.12041 0.062151 0.18852-0.01188 0.028416-0.040725 0.062283-0.065855 0.077602-0.044199 0.027014-0.06296 0.027279-1.6452 0.026458-0.8803 0-1.6127-0.00609-1.6276-0.011906zm-0.2717-0.3799c-0.0289-0.023-0.0544-0.0436-0.0568-0.0459-0.0023-0.0029 0.0139-0.0402 0.0361-0.0842 0.059-0.1167 0.133-0.3379 0.1584-0.4733 0.0296-0.158 0.0213-0.4096-0.0173-0.5204l-0.027223-0.078184 0.045016-0.056859c0.044688-0.056488 0.045582-0.056885 0.12312-0.052467 0.15423 0.00873 0.3735-0.06821 0.55412-0.19447 0.077227-0.053975 0.093549-0.060537 0.11582-0.046646 0.014261 0.00873 0.10995 0.083423 0.21264 0.1656l0.18671 0.14946-0.02122 0.048578c-0.10587 0.24238-0.14045 0.5243-0.081595 0.66516 0.019447 0.04654 0.018891 0.048657-0.02577 0.10247l-0.045638 0.054927h-0.1452c-0.27806 0-0.54449 0.1047-0.83927 0.32684-0.058793 0.044291-0.1097 0.080566-0.11313 0.080566-0.00344 0-0.029864-0.018785-0.05874-0.041725zm0.7875-0.706c0.038489-0.042016 0.044733-0.058499 0.044733-0.11814 0-0.062521-0.00513-0.07448-0.052438-0.12176-0.047559-0.047546-0.059018-0.05244-0.12315-0.05244-0.064505 0-0.075462 0.00476-0.12482 0.054107-0.052406 0.052414-0.053909 0.056436-0.04794 0.12843 0.00982 0.11827 0.073229 0.17222 0.19218 0.16349 0.056272-0.00423 0.073692-0.012435 0.11143-0.053684zm0.5109-0.9093c-0.1256-0.0994-0.2307-0.183-0.2335-0.1858-0.012-0.0119 0.0861-0.2944 0.1388-0.3993 0.1936-0.3854 0.6609-0.9534 1.3575-1.6498 0.2718-0.27171 0.4627-0.45192 0.4973-0.4696 0.068834-0.035137 0.15933-0.048604 0.20576-0.030665 0.01905 0.00741 0.080674 0.04998 0.13693 0.094668 0.12877 0.10234 0.15953 0.16624 0.13541 0.28125-0.0154 0.07345-0.1907 0.37475-0.4938 0.84885-0.3568 0.5581-0.8579 1.199-1.1042 1.4123-0.1154 0.0999-0.1599 0.1317-0.2965 0.2115l-0.11527 0.067363z" stroke-width=".26458" fill="#c8cdd1"/>
</svg>
