<?xml version="1.0" encoding="UTF-8" standalone="no"?>
<!-- Created with Inkscape (http://www.inkscape.org/) -->
<svg xmlns:rdf="http://www.w3.org/1999/02/22-rdf-syntax-ns#" xmlns="http://www.w3.org/2000/svg" height="16" width="16" version="1.1" xmlns:cc="http://creativecommons.org/ns#" xmlns:dc="http://purl.org/dc/elements/1.1/" viewBox="0 0 4.2333333 4.2333333">
 <metadata>
  <rdf:RDF>
   <cc:Work rdf:about="">
    <dc:format>image/svg+xml</dc:format>
    <dc:type rdf:resource="http://purl.org/dc/dcmitype/StillImage"/>
    <dc:title/>
   </cc:Work>
  </rdf:RDF>
 </metadata>
 <g transform="translate(0 -292.77)">
  <path d="m1.0725 296.75c0.056613-0.0602 0.082817-0.14404 0.091141-0.29133l0.011695-0.20677 0.19737-0.0114 0.19737-0.0114v-0.37203h0.19595c0.17888 0 0.20966-0.0135 0.3534-0.15451 0.15456-0.15169 0.16003-0.15367 0.29748-0.10832 0.2344 0.0774 0.71332 0.0325 0.9577-0.0897 0.26934-0.13473 0.5286-0.39156 0.66307-0.65691 0.098107-0.19357 0.10761-0.2472 0.10761-0.60709 0-0.35877-0.00963-0.41357-0.10582-0.6015-0.13874-0.27109-0.3956-0.52943-0.65928-0.66307-0.19359-0.0981-0.24722-0.10761-0.60709-0.10761s-0.4135 0.01-0.60709 0.10761c-0.26533 0.13448-0.52218 0.39372-0.65688 0.66307-0.12245 0.24484-0.16711 0.72329-0.089463 0.95853l0.046487 0.14089-0.64353 0.64431-0.64353 0.64431v0.35864c0 0.22882 0.016325 0.37497 0.045112 0.40373 0.02884 0.0288 0.17565 0.0451 0.40698 0.0451 0.32667 0 0.3696-0.008 0.44132-0.0846zm1.6586-2.4674c-0.13237-0.13237-0.14595-0.16425-0.14595-0.34276 0-0.17849 0.013573-0.2104 0.14595-0.34277 0.13237-0.13237 0.16427-0.14595 0.34277-0.14595s0.2104 0.0135 0.34277 0.14595c0.13237 0.13237 0.14595 0.16428 0.14595 0.34277 0 0.17851-0.013573 0.21039-0.14595 0.34276-0.13237 0.13238-0.16427 0.14598-0.34277 0.14598s-0.2104-0.0135-0.34277-0.14598z" stroke-width=".26458" fill="#c8cdd1"/>
 </g>
</svg>
