<?xml version="1.0" encoding="UTF-8" standalone="no"?>
<!-- Created with Inkscape (http://www.inkscape.org/) -->
<svg xmlns:rdf="http://www.w3.org/1999/02/22-rdf-syntax-ns#" xmlns="http://www.w3.org/2000/svg" height="14" width="16" version="1.1" xmlns:cc="http://creativecommons.org/ns#" xmlns:dc="http://purl.org/dc/elements/1.1/" viewBox="0 0 4.2333333 3.7041667">
 <metadata>
  <rdf:RDF>
   <cc:Work rdf:about="">
    <dc:format>image/svg+xml</dc:format>
    <dc:type rdf:resource="http://purl.org/dc/dcmitype/StillImage"/>
    <dc:title/>
   </cc:Work>
  </rdf:RDF>
 </metadata>
 <g transform="translate(0 -293.3)">
  <path d="m0.19834 296.95c-0.00426-0.0423 0.00447-0.195 0.015531-0.27146 0.043418-0.30025 0.16113-0.52644 0.33366-0.64117 0.16415-0.10911 0.34074-0.18634 0.71466-0.31252 0.28744-0.097 0.362-0.12965 0.39511-0.17307 0.027175-0.0356 0.047935-0.0901 0.056766-0.14901 0.0059-0.0393 0.00325-0.0459-0.051843-0.12972-0.18796-0.28578-0.30508-0.67673-0.31616-1.0554-0.00934-0.31893 0.043238-0.49816 0.18969-0.64673 0.075287-0.0764 0.17446-0.13083 0.30007-0.16478 0.065135-0.0177 0.10095-0.0204 0.27194-0.0209 0.17449 0 0.20629 0.003 0.27912 0.0201 0.2456 0.0626 0.40453 0.21976 0.46615 0.46114 0.095978 0.37589-0.030591 1.0084-0.27875 1.3931-0.041016 0.0636-0.042037 0.067-0.036849 0.12253 0.00691 0.0739 0.037118 0.15388 0.069686 0.18444 0.042963 0.0403 0.13312 0.0795 0.36126 0.15676 0.3718 0.12597 0.56052 0.20855 0.72162 0.31581 0.11673 0.0777 0.1786 0.15039 0.24663 0.28972 0.075054 0.15367 0.11672 0.34512 0.11683 0.53684l0.0000555 0.0961h-1.9269c-1.5347 0-1.9272-0.003-1.9282-0.0116z" stroke-width=".26458" fill="#c8cdd1"/>
 </g>
</svg>
