<?xml version="1.0" encoding="UTF-8" standalone="no"?>
<!-- Created with Inkscape (http://www.inkscape.org/) -->
<svg xmlns:rdf="http://www.w3.org/1999/02/22-rdf-syntax-ns#" xmlns="http://www.w3.org/2000/svg" height="10" width="10" version="1.1" xmlns:cc="http://creativecommons.org/ns#" xmlns:dc="http://purl.org/dc/elements/1.1/" viewBox="0 0 2.6458332 2.6458333">
 <metadata>
  <rdf:RDF>
   <cc:Work rdf:about="">
    <dc:format>image/svg+xml</dc:format>
    <dc:type rdf:resource="http://purl.org/dc/dcmitype/StillImage"/>
    <dc:title/>
   </cc:Work>
  </rdf:RDF>
 </metadata>
 <g transform="translate(0 -294.35)">
  <path d="m1.1782 294.35c-0.066384 0-0.11988 0.0535-0.11988 0.11989v0.93844h-0.93842c-0.066384 0-0.11988 0.0535-0.11988 0.11989v0.28939c0 0.0664 0.053499 0.11989 0.11988 0.11989h0.93842v0.93845c0 0.0664 0.053499 0.11988 0.11988 0.11988h0.2894c0.066384 0 0.11988-0.0535 0.11988-0.11988v-0.93845h0.93845c0.06638 0 0.11988-0.0535 0.11988-0.11989v-0.28939c0-0.0664-0.0535-0.11989-0.11988-0.11989h-0.9385v-0.93844c0-0.0664-0.053499-0.11989-0.11988-0.11989z" fill="#474e54"/>
 </g>
</svg>
