<?xml version="1.0" encoding="UTF-8" standalone="no"?>
<!-- Created with Inkscape (http://www.inkscape.org/) -->
<svg xmlns:rdf="http://www.w3.org/1999/02/22-rdf-syntax-ns#" xmlns="http://www.w3.org/2000/svg" height="18" width="23" version="1.1" xmlns:cc="http://creativecommons.org/ns#" xmlns:dc="http://purl.org/dc/elements/1.1/" viewBox="0 0 6.0854164 4.7624999">
 <metadata>
  <rdf:RDF>
   <cc:Work rdf:about="">
    <dc:format>image/svg+xml</dc:format>
    <dc:type rdf:resource="http://purl.org/dc/dcmitype/StillImage"/>
    <dc:title/>
   </cc:Work>
  </rdf:RDF>
 </metadata>
 <g transform="translate(0 -292.24)">
  <path d="m4.3394 296.76c-0.11033-0.0389-1.8838-0.85335-1.9355-0.88879-0.12978-0.089-0.17947-0.27404-0.11517-0.42885 0.015346-0.0368 0.2155-0.47768 0.44495-0.97971 0.4535-0.9923 0.44855-0.9832 0.56613-1.0409 0.054663-0.0268 0.077232-0.0313 0.15854-0.0313h0.094774l0.97218 0.44463c1.0561 0.48303 1.0299 0.46893 1.0937 0.59016 0.02667 0.0508 0.030533 0.0708 0.030612 0.15846v0.10037l-0.4405 0.96464c-0.43167 0.94534-0.44172 0.9659-0.50266 1.0277-0.051673 0.0524-0.074983 0.067-0.1378 0.0864-0.095779 0.0296-0.13909 0.029-0.22937-0.003zm0.079957-0.4485c0.071226-0.0236 0.14653-0.093 0.18426-0.16976 0.041593-0.0847 0.043815-0.2025 0.00529-0.28676-0.057891-0.12719-0.17177-0.1998-0.31425-0.20039-0.10417-0.00053-0.18881 0.0369-0.25551 0.11268-0.13634 0.15488-0.099351 0.41195 0.073872 0.51346 0.10284 0.0603 0.19039 0.0691 0.3062 0.0308zm-0.30721-0.92263c0.20045-0.10207 0.24942-0.37645 0.095647-0.53569-0.072522-0.0751-0.12753-0.10021-0.23146-0.10567-0.080222-0.004-0.099563-0.001-0.15208 0.0227-0.12054 0.0552-0.19333 0.15389-0.20632 0.27983-0.016404 0.15801 0.083661 0.3106 0.23633 0.36074 0.069876 0.0229 0.18976 0.0127 0.25789-0.022zm-0.35687-0.89984c0.064426-0.028 0.13454-0.0947 0.16931-0.16115 0.040746-0.0779 0.042968-0.21985 0.0045-0.29766-0.12697-0.25767-0.4876-0.26275-0.61457-0.009-0.063262 0.12657-0.043312 0.27312 0.051488 0.37858 0.10268 0.1142 0.25215 0.14833 0.38915 0.0889zm-2.3656 1.5462c-0.070723-0.0234-0.10811-0.0467-0.15878-0.0987-0.040613-0.0418-0.10962-0.1824-0.49284-1.0043-0.28892-0.61968-0.44939-0.97646-0.45635-1.0146-0.021431-0.11763 0.0254-0.25125 0.11523-0.32916 0.03093-0.0268 0.33666-0.17495 0.98629-0.47785 0.51779-0.24143 0.95859-0.44462 0.97954-0.45153 0.057653-0.019 0.15751-0.0161 0.22587 0.007 0.04654 0.0154 0.077232 0.0366 0.12811 0.0884 0.061304 0.0624 0.076227 0.0885 0.17841 0.31246 0.061357 0.13439 0.11068 0.24721 0.10959 0.25071 0 0.003-0.22143 0.4856-0.48972 1.0714-0.26829 0.58576-0.49937 1.0976-0.51353 1.1375-0.030189 0.0849-0.032967 0.15952-0.00926 0.25017 0.00926 0.0359 0.01561 0.0668 0.013494 0.0686-0.00265 0.002-0.09779 0.047-0.21317 0.10035-0.1855 0.0857-0.21836 0.0974-0.28403 0.10089-0.04281 0.002-0.093186-0.002-0.11888-0.0108zm0.3974-0.46633c0.069427-0.0299 0.15719-0.12429 0.18129-0.19503 0.056515-0.16581-0.015875-0.34211-0.17407-0.42406-0.049821-0.0258-0.072707-0.0305-0.14814-0.0305s-0.098319 0.005-0.14817 0.0305c-0.1216 0.063-0.19196 0.17549-0.19196 0.30699 0 0.0893 0.026644 0.15885 0.086201 0.2251 0.1052 0.11701 0.25061 0.14905 0.39484 0.087zm-0.5607-1.2531c0.11216-0.061 0.16978-0.15372 0.17767-0.28576 0.00423-0.0736 0.00265-0.0935-0.02249-0.14548-0.03855-0.0842-0.088027-0.13624-0.16719-0.17581-0.16838-0.0841-0.36777-0.0148-0.45638 0.1587-0.028892 0.0566-0.039529 0.17286-0.021696 0.23843 0.027146 0.10036 0.12986 0.20733 0.22818 0.23767 0.019315 0.006 0.072787 0.009 0.11904 0.008 0.067601-0.003 0.095594-0.01 0.14295-0.0353zm1.1988-0.55857c0.072337-0.0247 0.16497-0.11171 0.19725-0.18539 0.03601-0.0822 0.036195-0.19353 0-0.27367-0.034105-0.0765-0.12629-0.16152-0.20251-0.18683-0.075988-0.0252-0.18799-0.0188-0.2571 0.0148-0.16529 0.0804-0.24019 0.28061-0.16677 0.44565 0.031618 0.0711 0.12533 0.16072 0.19309 0.1847 0.063421 0.0224 0.17082 0.0228 0.23558 0.0008z" stroke-width=".26458" fill="#474e54"/>
 </g>
</svg>
