<?xml version="1.0" encoding="UTF-8" standalone="no"?>
<!-- Created with Inkscape (http://www.inkscape.org/) -->
<svg xmlns:rdf="http://www.w3.org/1999/02/22-rdf-syntax-ns#" xmlns="http://www.w3.org/2000/svg" height="14" width="24" version="1.1" xmlns:cc="http://creativecommons.org/ns#" xmlns:dc="http://purl.org/dc/elements/1.1/" viewBox="0 0 6.3499999 3.7041668">
 <metadata>
  <rdf:RDF>
   <cc:Work rdf:about="">
    <dc:format>image/svg+xml</dc:format>
    <dc:type rdf:resource="http://purl.org/dc/dcmitype/StillImage"/>
    <dc:title/>
   </cc:Work>
  </rdf:RDF>
 </metadata>
 <g transform="translate(0 -293.3)">
  <path d="m5.0182 296.82c-0.10248-0.0238-0.24424-0.10242-0.33638-0.18648-0.046289-0.0422-0.16282-0.16502-0.25897-0.27289-0.30627-0.34357-0.40262-0.38685-0.53264-0.23911-0.078838 0.0896-0.11151 0.20236-0.12925 0.44612-0.010213 0.14054-0.020955 0.16716-0.087434 0.21682-0.029448 0.022-0.053927 0.0246-0.29601 0.0312-0.40275 0.0111-0.58576-0.0148-0.84568-0.11896-0.23092-0.0926-0.55427-0.30634-0.75362-0.49826-0.25891-0.24924-0.64987-0.79174-0.93134-1.2924-0.23425-0.41666-0.55089-1.0717-0.56383-1.1665-0.00717-0.0524 0.015902-0.0926 0.069914-0.12218 0.033996-0.0188 0.084558-0.0209 0.51388-0.0243 0.42243-0.003 0.48191-0.003 0.52701 0.0156 0.082611 0.0315 0.11321 0.0662 0.16675 0.18875 0.14885 0.34065 0.39177 0.80957 0.51697 0.99785 0.16277 0.24479 0.32595 0.3579 0.42064 0.29157 0.085526-0.0599 0.13824-0.36621 0.12828-0.74541-0.011986-0.45601-0.070302-0.58571-0.29043-0.64595-0.044678-0.0124-0.073274-0.0265-0.075486-0.0378-0.00212-0.01 0.018997-0.0402 0.046548-0.0672 0.11889-0.11633 0.25852-0.14359 0.73666-0.14385 0.53404 0 0.64799 0.0315 0.7053 0.19659 0.013017 0.0374 0.016166 0.16708 0.016166 0.66325 0 0.60426 0.0005292 0.61783 0.024712 0.67019 0.034568 0.0747 0.081306 0.11528 0.1329 0.11528 0.032962 0 0.05693-0.0127 0.11659-0.0619 0.088146-0.0727 0.14259-0.13618 0.24636-0.28718 0.18885-0.27477 0.33218-0.53499 0.46789-0.84947 0.094128-0.2181 0.115-0.25427 0.15879-0.27525 0.019711-0.01 0.20298-0.0146 0.61569-0.0175l0.58764-0.004 0.048988 0.0262c0.0977 0.0522 0.092014 0.1683-0.019024 0.38856-0.085423 0.16942-0.22295 0.37169-0.52897 0.77798-0.15184 0.20162-0.29261 0.40008-0.31281 0.44101-0.043527 0.0883-0.045704 0.16074-0.00712 0.23733 0.015425 0.0306 0.13879 0.16219 0.32955 0.3515 0.3147 0.31229 0.39795 0.40622 0.51112 0.57671 0.073163 0.11026 0.10461 0.2144 0.087559 0.29001-0.010583 0.047-0.066535 0.0986-0.12673 0.117-0.078597 0.0238-0.98856 0.0382-1.0802 0.0169z" stroke-width=".26458" fill="#474e54"/>
 </g>
</svg>
