<?xml version="1.0" encoding="UTF-8" standalone="no"?>
<!-- Created with Inkscape (http://www.inkscape.org/) -->
<svg xmlns:rdf="http://www.w3.org/1999/02/22-rdf-syntax-ns#" xmlns="http://www.w3.org/2000/svg" height="23" width="23" version="1.1" xmlns:cc="http://creativecommons.org/ns#" xmlns:dc="http://purl.org/dc/elements/1.1/" viewBox="0 0 6.0854166 6.0854165">
 <metadata>
  <rdf:RDF>
   <cc:Work rdf:about="">
    <dc:format>image/svg+xml</dc:format>
    <dc:type rdf:resource="http://purl.org/dc/dcmitype/StillImage"/>
    <dc:title/>
   </cc:Work>
  </rdf:RDF>
 </metadata>
 <path d="m3.0501 0.092875c-0.41744 0-0.58442 0.023813-0.91571 0.13126-0.4482 0.14517-0.8098 0.36901-1.1576 0.71675-0.34771 0.34771-0.57153 0.70931-0.71671 1.1575-0.1073 0.3313-0.13126 0.4983-0.13126 0.9157 0 0.53091 0.07961 0.8862 0.29352 1.3116 0.43532 0.86564 1.2338 1.4457 2.1978 1.5968 0.19747 0.030956 0.85154 0.010583 1.0428-0.032544 0.5825-0.1316 1.0423-0.3844 1.4605-0.8026 0.3501-0.3502 0.5704-0.7055 0.7162-1.1555 0.108-0.3334 0.1318-0.4997 0.1318-0.9178 0-0.41807-0.02376-0.58431-0.13178-0.91776-0.1458-0.4499-0.3661-0.8052-0.7162-1.1554-0.3478-0.34775-0.7094-0.57159-1.1576-0.71677-0.3313-0.10718-0.4983-0.13126-0.9157-0.13126zm0.083717 0.45839c0.19791 0.00609 0.39452 0.027834 0.52141 0.062521 0.88688 0.24231 1.5541 0.91133 1.7983 1.804 0.044199 0.16158 0.051678 0.24781 0.051678 0.59634 0 0.34851-0.00749 0.43479-0.051678 0.59637-0.244 0.8923-0.9098 1.5609-1.7952 1.8035-0.2415 0.0662-0.8467 0.0829-1.0852 0.03-1.0047-0.2229-1.7487-0.9725-1.9533-1.9689-0.048117-0.23426-0.048117-0.68712 0-0.92138 0.10647-0.5186 0.30739-0.8872 0.695-1.2748 0.3921-0.39214 0.7586-0.59066 1.2904-0.69819 0.1314-0.02656 0.3307-0.03566 0.5286-0.02944zm-1.0371 1.3244c-0.13645 0.011113-0.26445 0.077311-0.34158 0.18862-0.057986 0.083661-0.066662 0.1174-0.066662 0.26096 0 0.13769 0.0095 0.17851 0.057359 0.24651 0.06935 0.098557 0.10704 0.13224 0.19844 0.17518 0.10464 0.04908 0.28307 0.04236 0.40153-0.015081 0.3207-0.1552 0.3185-0.6681-0.0037-0.8144-0.0784-0.0356-0.1636-0.0485-0.2454-0.0419zm1.8242 0c-0.055189 0.0045-0.11051 0.017992-0.16278 0.041857-0.1707 0.077523-0.25568 0.2413-0.23771 0.45786 0.013203 0.15912 0.097933 0.28951 0.23203 0.35758 0.13555 0.068924 0.34986 0.060166 0.4656-0.01905 0.1414-0.0969 0.1927-0.2003 0.1933-0.3881 0.0002-0.1439-0.0081-0.1771-0.0662-0.261-0.0925-0.1335-0.2587-0.2024-0.4243-0.1886zm-2.0929 1.7999-0.3799 0.2873c0.87838 1.1589 2.4664 1.0562 3.1595-0.00556l-0.3989-0.2604c-0.5237 0.8025-1.6709 0.9154-2.3807-0.0211z" stroke-width=".26458" fill="#474e54"/>
</svg>
