<?xml version="1.0" encoding="UTF-8" standalone="no"?>
<!-- Created with Inkscape (http://www.inkscape.org/) -->
<svg xmlns:rdf="http://www.w3.org/1999/02/22-rdf-syntax-ns#" xmlns="http://www.w3.org/2000/svg" height="19" width="18" version="1.1" xmlns:cc="http://creativecommons.org/ns#" xmlns:dc="http://purl.org/dc/elements/1.1/" viewBox="0 0 4.7625001 5.0270833">
 <metadata>
  <rdf:RDF>
   <cc:Work rdf:about="">
    <dc:format>image/svg+xml</dc:format>
    <dc:type rdf:resource="http://purl.org/dc/dcmitype/StillImage"/>
    <dc:title/>
   </cc:Work>
  </rdf:RDF>
 </metadata>
 <g transform="translate(0 -291.97)">
  <path d="m2.0757 296.89c-0.57172-0.0769-1.1118-0.39896-1.4586-0.86984-0.093382-0.12679-0.14716-0.21712-0.21884-0.36751-0.13242-0.27787-0.19588-0.53819-0.20883-0.85667-0.024421-0.60066 0.20532-1.1891 0.63305-1.6216 0.14614-0.14777 0.18638-0.16994 0.3084-0.16994 0.076991 0 0.094533 0.003 0.13891 0.0267 0.064831 0.0341 0.11379 0.0846 0.14634 0.15116 0.02122 0.0434 0.025744 0.0663 0.025744 0.13038 0 0.1096-0.02376 0.15283-0.16158 0.29417-0.22135 0.22698-0.35191 0.45979-0.42355 0.75525-0.13505 0.557 0.066289 1.1713 0.50511 1.5412 0.20976 0.17679 0.43419 0.2876 0.70558 0.3484 0.088718 0.0198 0.12737 0.0228 0.31177 0.0228 0.22224 0 0.30832-0.0119 0.47172-0.0647 0.80075-0.25924 1.2588-1.0948 1.0401-1.8975-0.076179-0.27964-0.19604-0.48411-0.41678-0.71093-0.12926-0.13285-0.15494-0.18069-0.15494-0.28859 0-0.12252 0.062045-0.22471 0.17115-0.28194 0.042093-0.022 0.061304-0.0257 0.13707-0.0259 0.11468 0 0.15715 0.0201 0.27288 0.13133 0.33742 0.32444 0.5594 0.74489 0.6437 1.2192 0.019473 0.10956 0.022622 0.16002 0.022622 0.36227 0 0.20222-0.00315 0.2527-0.022622 0.36224-0.10869 0.61164-0.4393 1.1202-0.95085 1.4626-0.27056 0.18114-0.56984 0.29668-0.89024 0.34372-0.16006 0.0233-0.46695 0.0254-0.62732 0.004zm0.18831-2.5063c-0.059605-0.022-0.14183-0.10065-0.16988-0.1627l-0.023336-0.0516v-0.8567c0-0.81912 0.0007937-0.85881 0.018653-0.90508 0.036539-0.0947 0.13085-0.17177 0.23293-0.19032 0.14188-0.0257 0.2776 0.0428 0.34218 0.17275l0.023045 0.0464v1.7428l-0.026485 0.0502c-0.031906 0.0605-0.072342 0.10244-0.13295 0.13795-0.038711 0.0227-0.057917 0.0269-0.1338 0.0291-0.061743 0.003-0.10126-0.003-0.13038-0.0127z" stroke-width=".26458" fill="#474e54"/>
 </g>
</svg>
