<?xml version="1.0" encoding="UTF-8" standalone="no"?>
<!-- Created with Inkscape (http://www.inkscape.org/) -->
<svg xmlns:rdf="http://www.w3.org/1999/02/22-rdf-syntax-ns#" xmlns="http://www.w3.org/2000/svg" height="19" width="18" version="1.1" xmlns:cc="http://creativecommons.org/ns#" xmlns:dc="http://purl.org/dc/elements/1.1/" viewBox="0 0 4.7625001 5.0270833">
 <metadata>
  <rdf:RDF>
   <cc:Work rdf:about="">
    <dc:format>image/svg+xml</dc:format>
    <dc:type rdf:resource="http://purl.org/dc/dcmitype/StillImage"/>
    <dc:title/>
   </cc:Work>
  </rdf:RDF>
 </metadata>
 <g transform="translate(0 -291.97)">
  <path d="m1.1029 296.76c-0.50792-0.0584-0.91818-0.44863-0.99962-0.9507-0.048853-0.30123 0.015928-0.59018 0.18982-0.84667 0.062143-0.0916 1.0712-1.1146 1.1873-1.2037 0.089834-0.0688 0.2804-0.16189 0.3881-0.18938 0.1918-0.049 0.39375-0.0489 0.58481 0.00023 0.10817 0.0279 0.32081 0.13341 0.40538 0.20133 0.088953 0.0713 0.11563 0.12673 0.11563 0.23989 0 0.0716-0.00468 0.0946-0.029721 0.14558-0.037357 0.0761-0.11214 0.15994-0.17619 0.19761-0.043786 0.0257-0.059931 0.029-0.14497 0.029-0.094827 0-0.096896 0-0.22756-0.0628-0.11367-0.0542-0.1424-0.0635-0.20819-0.0677-0.090839-0.006-0.17802 0.0159-0.25156 0.0627-0.054438 0.0347-1.0089 0.99076-1.0614 1.0633-0.051001 0.0704-0.07892 0.17621-0.071697 0.2717 0.022384 0.2962 0.32324 0.4777 0.59441 0.35862 0.058724-0.0259 0.097512-0.0596 0.31231-0.27221l0.24526-0.24278 0.079044 0.0363c0.19939 0.0916 0.38556 0.12824 0.61791 0.12163l0.15863-0.004-0.41786 0.41854c-0.22982 0.23019-0.44896 0.44223-0.48698 0.47112-0.21934 0.16677-0.53338 0.254-0.80278 0.22299zm1.3848-1.3624c-0.18891-0.0198-0.41813-0.11099-0.56478-0.22431-0.1003-0.0775-0.12894-0.13264-0.1288-0.24789 0.0000846-0.0692 0.00524-0.096 0.02763-0.14356 0.034287-0.0729 0.11342-0.16156 0.17819-0.19966 0.043781-0.0257 0.059941-0.0289 0.14497-0.0289 0.094885 0 0.096808 0 0.22698 0.0628 0.11364 0.0543 0.14162 0.0634 0.20818 0.0677 0.091503 0.006 0.17842-0.0156 0.25226-0.0627 0.027183-0.0172 0.27649-0.26019 0.55398-0.53975 0.54823-0.55232 0.55012-0.55459 0.57446-0.69673 0.05752-0.33581-0.2868-0.59774-0.59569-0.45318-0.061698 0.0288-0.1017 0.0639-0.31125 0.27213l-0.24046 0.23902-0.079039-0.0363c-0.19813-0.091-0.37978-0.12745-0.60803-0.12192-0.086259 0.003-0.15683 0.003-0.15683-0.003 0-0.0167 0.86664-0.86558 0.92506-0.90627 0.1292-0.0899 0.29838-0.16034 0.45721-0.19016 0.10065-0.019 0.30732-0.0159 0.41468 0.006 0.44258 0.0908 0.77994 0.42439 0.89028 0.88019 0.01392 0.0575 0.0186 0.12051 0.01836 0.24733-0.000249 0.19251-0.01828 0.28453-0.08772 0.4504-0.07941 0.18968-0.12082 0.23828-0.69794 0.81849-0.2928 0.29437-0.56346 0.55896-0.60148 0.58801-0.090887 0.0694-0.28158 0.16243-0.3881 0.18928-0.084016 0.0212-0.25144 0.0443-0.30304 0.0417-0.014605 0-0.063709-0.005-0.10909-0.0101z" stroke-width=".26458" fill="#c8cdd1"/>
 </g>
</svg>
