<?xml version="1.0" encoding="UTF-8" standalone="no"?>
<!-- Created with Inkscape (http://www.inkscape.org/) -->
<svg xmlns:rdf="http://www.w3.org/1999/02/22-rdf-syntax-ns#" xmlns="http://www.w3.org/2000/svg" height="14" width="75" version="1.1" xmlns:cc="http://creativecommons.org/ns#" xmlns:dc="http://purl.org/dc/elements/1.1/" viewBox="0 0 19.84375 3.7041668">
 <metadata>
  <rdf:RDF>
   <cc:Work rdf:about="">
    <dc:format>image/svg+xml</dc:format>
    <dc:type rdf:resource="http://purl.org/dc/dcmitype/StillImage"/>
    <dc:title/>
   </cc:Work>
  </rdf:RDF>
 </metadata>
 <g transform="translate(0 -293.3)">
  <path fill="#474e54" d="m1.2408 293.38v1.0914h-1.1757v0.82476h1.1757v1.5637h0.88522v-3.4799zm3.3228 0-1.1694 3.4799h0.90175l0.22169-0.76481h1.1384l0.21962 0.76481h0.94051l-1.17-3.4799zm2.5502 0v3.4799h0.77876v-2.173h0.01912l0.85886 2.1368h0.50643l0.86093-2.1368h0.01654v2.173h0.77928v-3.4799h-1.023l-0.87798 2.2355h-0.01912l-0.87798-2.2355zm5.2881 0v3.4799h0.88522v-1.218h0.45785l0.59583 1.218h0.99374l-0.69453-1.3482c0.38103-0.1664 0.59324-0.55707 0.59324-0.98392 0-0.71865-0.46819-1.1477-1.3364-1.1477zm3.2473 0v3.4799h0.8847v-3.4799zm1.3756 0v3.4799h0.8847v-1.0201h0.58601c0.77411 0 1.3074-0.48507 1.3074-1.2278 0-0.74758-0.50643-1.232-1.2516-1.232zm-3.7378 0.66766h0.5209c0.31592 0 0.5209 0.2005 0.5209 0.49712 0 0.30145-0.19327 0.49196-0.51883 0.49196h-0.52296zm4.6225 0.01h0.40514c0.37138 0 0.59324 0.19534 0.59324 0.55708 0 0.36414-0.22169 0.55965-0.5979 0.55965h-0.40049zm-12.832 0.0605h0.01912l0.38602 1.3405h-0.794z"/>
 </g>
</svg>
